#!OML:ASF F:\VICON\USERDATA\INSTALL\Justin_Nancy\Justin_Nancy.ASF
:FULLY-SPECIFIED
:DEGREES
97
root 10.7541 15.1817 0.655488 -13.7223 -22.894 15.0125
lowerback 14.2595 -2.3067 -8.98873
upperback 1.52218 -4.55503 -0.952119
thorax -5.74924 -2.04838 4.89222
lowerneck -9.83267 -10.8158 -13.7425
upperneck 18.8867 -14.1258 7.16545
head 9.04136 -7.02463 2.96394
rclavicle 8.55768e-014 1.74931e-014
rhumerus -48.2827 17.1148 -97.3183
rradius 114.843
rwrist -7.93888
rhand -6.74538 21.5878
rfingers 7.12502
rthumb 19.1157 -7.49277
lclavicle 8.55768e-014 1.74931e-014
lhumerus -36.7296 -12.839 100.398
lradius 94.7463
lwrist 16.9486
lhand -17.7477 4.46279
lfingers 7.12502
lthumb 8.51383 34.2712
rfemur -48.923 -9.24451 13.2671
rtibia 73.6603
rfoot -5.50334 14.4256
rtoes 7.57432
lfemur 6.00155 -6.21052 -8.15771
ltibia 34.3152
lfoot -17.5163 -2.91701
ltoes -37.8
98
root 10.5445 15.2657 0.902455 -13.7277 -22.4026 15.3136
lowerback 13.7349 -2.77978 -8.81917
upperback 1.40921 -5.10399 -0.940531
thorax -5.5138 -2.33052 4.86507
lowerneck -9.67978 -10.6906 -13.5092
upperneck 18.9289 -13.9195 6.70437
head 8.952 -6.96061 2.81345
rclavicle -1.73937e-014 -3.18055e-015
rhumerus -48.6934 17.9583 -97.3267
rradius 115.29
rwrist -6.46423
rhand -6.91727 21.534
rfingers 7.12502
rthumb 18.9504 -7.56287
lclavicle -1.73937e-014 -3.18055e-015
lhumerus -36.6615 -12.482 100.132
lradius 94.8218
lwrist 17.2328
lhand -17.9758 4.61955
lfingers 7.12502
lthumb 8.2937 34.4367
rfemur -47.8314 -10.1176 13.6094
rtibia 73.1877
rfoot -6.35377 14.0901
rtoes 7.8349
lfemur 7.21776 -7.36129 -8.5457
ltibia 33.1812
lfoot -14.7939 -3.52288
ltoes -38.6997
99
root 10.3212 15.3301 1.13993 -14.0543 -23.2929 16.5414
lowerback 13.1802 -2.42467 -9.42614
upperback 0.738092 -4.70602 -0.943458
thorax -5.93628 -2.07584 5.12563
lowerneck -9.28076 -10.835 -14.4259
upperneck 19.6229 -14.0801 6.675
head 9.21034 -7.12031 2.92424
rclavicle 4.28878e-014 0
rhumerus -49.8502 17.897 -97.0721
rradius 115.483
rwrist -5.37876
rhand -6.67593 21.3125
rfingers 7.12502
rthumb 19.1825 -7.76146
lclavicle 4.28878e-014 0
lhumerus -37.8875 -12.258 100.58
lradius 94.9728
lwrist 17.234
lhand -17.8942 4.24378
lfingers 7.12502
lthumb 8.37248 34.0578
rfemur -47.2719 -9.71796 13.636
rtibia 72.6401
rfoot -6.51472 13.3231
rtoes 8.9562
lfemur 8.61695 -7.28573 -9.59436
ltibia 32.4651
lfoot -12.4845 -3.71627
ltoes -42.4958
100
root 10.1061 15.4124 1.41759 -15.5939 -22.3403 19.0021
lowerback 13.1937 -2.55448 -11.0803
upperback 0.483328 -5.18941 -1.50909
thorax -6.06149 -2.25858 5.523
lowerneck -8.48336 -10.8051 -14.9483
upperneck 19.7359 -14.0605 6.52608
head 9.13505 -7.1892 2.99305
rclavicle 2.99171e-014 -2.54444e-014
rhumerus -50.7304 18.0103 -96.9096
rradius 115.555
rwrist -4.72919
rhand -6.28597 21.2716
rfingers 7.12502
rthumb 19.5574 -7.76475
lclavicle 2.99171e-014 -2.54444e-014
lhumerus -38.789 -11.7385 100.484
lradius 95.0116
lwrist 16.6739
lhand -17.654 3.51199
lfingers 7.12502
lthumb 8.60424 33.3167
rfemur -45.42 -11.5796 11.5868
rtibia 72.5506
rfoot -7.34488 12.3972
rtoes 10.0503
lfemur 10.3479 -8.91189 -12.7076
ltibia 31.8567
lfoot -9.246 -4.45548
ltoes -40.8667
101
root 9.87695 15.4995 1.61426 -14.3904 -23.5462 17.707
lowerback 12.4994 -2.68094 -9.31914
upperback -0.0319308 -5.00337 -0.948597
thorax -6.3488 -2.17663 5.08904
lowerneck -8.45215 -11.2082 -15.6734
upperneck 19.5764 -14.5863 6.88231
head 9.22522 -7.45068 3.14014
rclavicle 8.43965e-014 -1.59028e-015
rhumerus -51.2902 18.176 -96.7697
rradius 115.628
rwrist -4.52582
rhand -6.09023 21.0572
rfingers 7.12502
rthumb 19.7456 -7.95991
lclavicle 8.43965e-014 -1.59028e-015
lhumerus -39.2678 -11.2746 99.8357
lradius 95.0202
lwrist 16.029
lhand -17.3202 3.66803
lfingers 7.12502
lthumb 8.9264 33.4592
rfemur -45.2991 -11.283 14.836
rtibia 72.0074
rfoot -7.32362 9.38353
rtoes 9.41551
lfemur 10.2939 -8.82478 -10.6499
ltibia 31.5616
lfoot -5.23083 -6.08723
ltoes -39.3872
102
root 9.64923 15.5844 1.82287 -14.3026 -24.5004 18.2658
lowerback 11.8029 -2.57035 -9.05621
upperback -0.251587 -4.76051 -1.01371
thorax -6.25503 -2.06646 4.79688
lowerneck -8.42243 -11.0483 -15.5275
upperneck 19.6637 -14.3445 6.63035
head 9.18925 -7.35415 3.07171
rclavicle 9.06085e-014 6.36111e-015
rhumerus -51.4344 18.0056 -96.6606
rradius 115.509
rwrist -4.47905
rhand -6.10917 21.2592
rfingers 7.12502
rthumb 19.7274 -7.75972
lclavicle 9.06085e-014 6.36111e-015
lhumerus -39.5233 -10.8819 98.8517
lradius 94.8928
lwrist 15.3447
lhand -16.9548 4.19452
lfingers 7.12502
lthumb 9.27899 33.9703
rfemur -44.8035 -11.3456 15.771
rtibia 72.2069
rfoot -7.66718 7.73939
rtoes 11.2695
lfemur 10.8137 -8.60485 -10.8462
ltibia 31.1721
lfoot -0.865397 -6.61295
ltoes -38.3999
103
root 9.42403 15.6581 2.04043 -14.5486 -25.3774 19.3404
lowerback 11.1866 -2.39581 -9.22465
upperback -0.509262 -4.51108 -1.16531
thorax -6.22085 -1.93633 4.66177
lowerneck -8.28166 -10.9055 -15.5879
upperneck 19.7202 -14.1266 6.45265
head 9.14925 -7.2795 3.06011
rclavicle 5.32727e-014 1.11319e-014
rhumerus -51.2468 17.8924 -96.432
rradius 115.042
rwrist -4.64747
rhand -6.0753 21.0864
rfingers 7.12502
rthumb 19.76 -7.92919
lclavicle 5.32727e-014 1.11319e-014
lhumerus -40.1163 -10.2712 97.9462
lradius 94.7026
lwrist 14.4748
lhand -16.8987 4.04676
lfingers 7.12502
lthumb 9.3331 33.8202
rfemur -44.0418 -11.45 15.927
rtibia 72.3324
rfoot -7.83273 6.84561
rtoes 14.2323
lfemur 11.2404 -8.82208 -11.8486
ltibia 30.9585
lfoot 3.45672 -6.00067
ltoes -38.0811
104
root 9.19974 15.7322 2.27121 -15.0284 -26.2511 20.661
lowerback 10.6245 -2.2351 -9.5153
upperback -0.755814 -4.29996 -1.32806
thorax -6.19174 -1.82116 4.59385
lowerneck -8.41113 -10.9945 -15.9558
upperneck 19.562 -14.2041 6.64605
head 9.17242 -7.31768 3.16095
rclavicle 2.57675e-014 3.18055e-014
rhumerus -50.9535 18.0839 -96.1326
rradius 114.506
rwrist -4.88548
rhand -6.30535 20.8501
rfingers 7.12502
rthumb 19.5388 -8.1881
lclavicle 2.57675e-014 3.18055e-014
lhumerus -40.6046 -9.56642 96.7906
lradius 94.3325
lwrist 13.5651
lhand -17.0137 3.51744
lfingers 7.12502
lthumb 9.22212 33.2958
rfemur -43.1722 -11.4854 15.6385
rtibia 72.696
rfoot -8.25533 5.98679
rtoes 15.758
lfemur 11.9076 -9.44923 -13.3549
ltibia 30.2575
lfoot 8.4549 -6.56741
ltoes -36.4246
105
root 8.97964 15.7984 2.4843 -15.8146 -27.2883 21.6014
lowerback 10.6527 -2.01086 -9.47457
upperback -0.820444 -4.01162 -1.41228
thorax -6.32812 -1.67394 4.44657
lowerneck -8.55526 -10.9021 -15.9786
upperneck 19.8677 -14.0065 6.34921
head 9.26126 -7.25576 3.08183
rclavicle -3.49737e-014 -1.59028e-014
rhumerus -50.7247 18.2226 -95.7512
rradius 114.076
rwrist -5.19552
rhand -6.6778 20.7811
rfingers 7.12502
rthumb 19.1807 -8.29302
lclavicle -3.49737e-014 -1.59028e-014
lhumerus -40.9831 -8.97204 95.6027
lradius 94.0755
lwrist 13.3087
lhand -17.956 4.69566
lfingers 7.12502
lthumb 8.31283 34.5121
rfemur -41.642 -11.2776 15.6755
rtibia 72.4405
rfoot -8.73225 5.08091
rtoes 16.4258
lfemur 12.8822 -9.97212 -14.4458
ltibia 29.6578
lfoot 13.0292 -8.58317
ltoes -35.5453
